<mxfile host="65bd71144e">
    <diagram id="HMwKK02AT18eXdyHaWzy" name="Condition">
        <mxGraphModel dx="562" dy="535" grid="1" gridSize="10" guides="1" tooltips="1" connect="1" arrows="1" fold="1" page="1" pageScale="1" pageWidth="850" pageHeight="1100" math="0" shadow="0">
            <root>
                <mxCell id="0"/>
                <mxCell id="1" parent="0"/>
                <mxCell id="4" value="&lt;h1 style=&quot;font-size: 16px;&quot;&gt;&lt;font style=&quot;font-size: 16px;&quot;&gt;Угадай слово&lt;/font&gt;&lt;/h1&gt;&lt;p style=&quot;font-size: 16px;&quot;&gt;&lt;font style=&quot;font-size: 16px;&quot;&gt;1. Есть список тем, из которых пользователь может выбрать желаемую&lt;/font&gt;&lt;/p&gt;&lt;p style=&quot;font-size: 16px;&quot;&gt;&lt;font style=&quot;font-size: 16px;&quot;&gt;2. В каждой теме есть 10 слов, программа рандомно выбирает одно из&lt;/font&gt;&lt;/p&gt;&lt;p style=&quot;font-size: 16px;&quot;&gt;&lt;font style=&quot;font-size: 16px;&quot;&gt;3. Игроку сообщают, сколько букв в слове и сколько у него попыток (кол-во букв * 2)&lt;/font&gt;&lt;/p&gt;&lt;p style=&quot;font-size: 16px;&quot;&gt;&lt;font style=&quot;font-size: 16px;&quot;&gt;4. Нужно валидировать пользовательский ввод:&lt;/font&gt;&lt;/p&gt;&lt;p style=&quot;font-size: 16px;&quot;&gt;&lt;font style=&quot;font-size: 16px;&quot;&gt;&amp;nbsp;4.1. Нельзя вводить пустую строку или несколько букв, но если ввели ходы не отнимаем.&lt;/font&gt;&lt;/p&gt;&lt;p style=&quot;font-size: 16px;&quot;&gt;&lt;font style=&quot;font-size: 16px;&quot;&gt;4.2. Нельзя вводить цифры и специальные знаки&lt;/font&gt;&lt;/p&gt;&lt;font style=&quot;font-size: 16px;&quot;&gt;но если ввели ходы не отнимаем.&lt;br&gt;4.3. Нельзя повторно вводить буквы,но если ввели ходы не отнимаем.&lt;br&gt;5. Если пользователь ввел букву, которой нет в слове, то уменьшаем кол-во попыток на 1&lt;br&gt;6. Если буква, встречается в слове несколько раз, то достаточно отгадать ее 1 раз&lt;br&gt;7. Игра завершается, если пользователь угадал слово или закончились ходы.&lt;br&gt;8. На каждом этапе (если угадали букву) выводим слово, заменив неотгаданные буквы на _.&lt;br&gt;&lt;br&gt;п _ _ _ _ _&lt;/font&gt;" style="text;html=1;strokeColor=none;fillColor=none;spacing=5;spacingTop=-20;whiteSpace=wrap;overflow=hidden;rounded=0;" parent="1" vertex="1">
                    <mxGeometry x="40" y="40" width="520" height="550" as="geometry"/>
                </mxCell>
            </root>
        </mxGraphModel>
    </diagram>
    <diagram id="n-fMT2vsCEjToLhD7_K_" name="Solution">
        <mxGraphModel dx="1385" dy="742" grid="1" gridSize="10" guides="1" tooltips="1" connect="1" arrows="1" fold="1" page="1" pageScale="1" pageWidth="850" pageHeight="1100" math="0" shadow="0">
            <root>
                <mxCell id="0"/>
                <mxCell id="1" parent="0"/>
                <mxCell id="Ptwl4c3_7X7ABX6Py_V5-2" style="edgeStyle=none;html=1;exitX=0.5;exitY=1;exitDx=0;exitDy=0;" parent="1" source="Ptwl4c3_7X7ABX6Py_V5-1" edge="1">
                    <mxGeometry relative="1" as="geometry">
                        <mxPoint x="280" y="180" as="targetPoint"/>
                    </mxGeometry>
                </mxCell>
                <mxCell id="Ptwl4c3_7X7ABX6Py_V5-1" value="Start" style="ellipse;whiteSpace=wrap;html=1;aspect=fixed;" parent="1" vertex="1">
                    <mxGeometry x="240" y="60" width="80" height="80" as="geometry"/>
                </mxCell>
                <mxCell id="Ptwl4c3_7X7ABX6Py_V5-4" style="edgeStyle=none;html=1;startArrow=none;" parent="1" source="Ptwl4c3_7X7ABX6Py_V5-5" edge="1">
                    <mxGeometry relative="1" as="geometry">
                        <mxPoint x="280" y="300" as="targetPoint"/>
                    </mxGeometry>
                </mxCell>
                <mxCell id="Ptwl4c3_7X7ABX6Py_V5-3" value="Выводим список доступных тем" style="shape=parallelogram;perimeter=parallelogramPerimeter;whiteSpace=wrap;html=1;fixedSize=1;" parent="1" vertex="1">
                    <mxGeometry x="150" y="180" width="260" height="60" as="geometry"/>
                </mxCell>
                <mxCell id="Ptwl4c3_7X7ABX6Py_V5-6" style="edgeStyle=none;html=1;" parent="1" source="Ptwl4c3_7X7ABX6Py_V5-5" target="Ptwl4c3_7X7ABX6Py_V5-7" edge="1">
                    <mxGeometry relative="1" as="geometry">
                        <mxPoint x="280" y="420" as="targetPoint"/>
                    </mxGeometry>
                </mxCell>
                <mxCell id="Ptwl4c3_7X7ABX6Py_V5-8" style="edgeStyle=none;html=1;" parent="1" source="Ptwl4c3_7X7ABX6Py_V5-7" target="Ptwl4c3_7X7ABX6Py_V5-9" edge="1">
                    <mxGeometry relative="1" as="geometry">
                        <mxPoint x="280" y="540" as="targetPoint"/>
                    </mxGeometry>
                </mxCell>
                <mxCell id="Ptwl4c3_7X7ABX6Py_V5-7" value="Выбрать слово по указанной теме" style="rounded=0;whiteSpace=wrap;html=1;" parent="1" vertex="1">
                    <mxGeometry x="150" y="400" width="260" height="60" as="geometry"/>
                </mxCell>
                <mxCell id="Ptwl4c3_7X7ABX6Py_V5-13" style="edgeStyle=none;html=1;exitX=0.5;exitY=1;exitDx=0;exitDy=0;" parent="1" source="Ptwl4c3_7X7ABX6Py_V5-9" target="Ptwl4c3_7X7ABX6Py_V5-14" edge="1">
                    <mxGeometry relative="1" as="geometry">
                        <mxPoint x="280" y="630" as="targetPoint"/>
                    </mxGeometry>
                </mxCell>
                <mxCell id="Ptwl4c3_7X7ABX6Py_V5-9" value="Определить длину слова и кол-во попыток" style="rounded=0;whiteSpace=wrap;html=1;" parent="1" vertex="1">
                    <mxGeometry x="150" y="510" width="260" height="60" as="geometry"/>
                </mxCell>
                <mxCell id="Ptwl4c3_7X7ABX6Py_V5-10" value="" style="edgeStyle=none;html=1;endArrow=none;" parent="1" source="Ptwl4c3_7X7ABX6Py_V5-3" target="Ptwl4c3_7X7ABX6Py_V5-5" edge="1">
                    <mxGeometry relative="1" as="geometry">
                        <mxPoint x="280" y="300" as="targetPoint"/>
                        <mxPoint x="280" y="230" as="sourcePoint"/>
                    </mxGeometry>
                </mxCell>
                <mxCell id="Ptwl4c3_7X7ABX6Py_V5-5" value="Получаем выбор пользователя" style="shape=parallelogram;perimeter=parallelogramPerimeter;whiteSpace=wrap;html=1;fixedSize=1;" parent="1" vertex="1">
                    <mxGeometry x="150" y="290" width="260" height="60" as="geometry"/>
                </mxCell>
                <mxCell id="Ptwl4c3_7X7ABX6Py_V5-17" style="edgeStyle=none;html=1;" parent="1" source="Ptwl4c3_7X7ABX6Py_V5-11" target="Ptwl4c3_7X7ABX6Py_V5-16" edge="1">
                    <mxGeometry relative="1" as="geometry"/>
                </mxCell>
                <mxCell id="Ptwl4c3_7X7ABX6Py_V5-11" value="" style="shape=trapezoid;perimeter=trapezoidPerimeter;whiteSpace=wrap;html=1;fixedSize=1;" parent="1" vertex="1">
                    <mxGeometry x="132.5" y="720" width="297.5" height="50" as="geometry"/>
                </mxCell>
                <mxCell id="Ptwl4c3_7X7ABX6Py_V5-15" style="edgeStyle=none;html=1;entryX=0.5;entryY=0;entryDx=0;entryDy=0;" parent="1" source="Ptwl4c3_7X7ABX6Py_V5-14" target="Ptwl4c3_7X7ABX6Py_V5-11" edge="1">
                    <mxGeometry relative="1" as="geometry"/>
                </mxCell>
                <mxCell id="Ptwl4c3_7X7ABX6Py_V5-14" value="Выводим сообщение о длине &lt;br&gt;слова и кол-во попыток" style="shape=parallelogram;perimeter=parallelogramPerimeter;whiteSpace=wrap;html=1;fixedSize=1;" parent="1" vertex="1">
                    <mxGeometry x="150" y="610" width="260" height="60" as="geometry"/>
                </mxCell>
                <mxCell id="Ptwl4c3_7X7ABX6Py_V5-18" style="edgeStyle=none;html=1;" parent="1" source="Ptwl4c3_7X7ABX6Py_V5-16" target="Ptwl4c3_7X7ABX6Py_V5-19" edge="1">
                    <mxGeometry relative="1" as="geometry">
                        <mxPoint x="280" y="940" as="targetPoint"/>
                    </mxGeometry>
                </mxCell>
                <mxCell id="Ptwl4c3_7X7ABX6Py_V5-16" value="Проверка, есть ли еще попытки для угадывания" style="shape=process;whiteSpace=wrap;html=1;backgroundOutline=1;" parent="1" vertex="1">
                    <mxGeometry x="145" y="820" width="270" height="60" as="geometry"/>
                </mxCell>
                <mxCell id="Ptwl4c3_7X7ABX6Py_V5-22" style="edgeStyle=none;html=1;exitX=0;exitY=0.5;exitDx=0;exitDy=0;" parent="1" source="Ptwl4c3_7X7ABX6Py_V5-19" edge="1">
                    <mxGeometry relative="1" as="geometry">
                        <mxPoint x="90" y="975" as="targetPoint"/>
                    </mxGeometry>
                </mxCell>
                <mxCell id="Ptwl4c3_7X7ABX6Py_V5-27" style="edgeStyle=none;html=1;exitX=0.5;exitY=1;exitDx=0;exitDy=0;entryX=0.5;entryY=0;entryDx=0;entryDy=0;" parent="1" source="Ptwl4c3_7X7ABX6Py_V5-19" target="Ptwl4c3_7X7ABX6Py_V5-26" edge="1">
                    <mxGeometry relative="1" as="geometry"/>
                </mxCell>
                <mxCell id="Ptwl4c3_7X7ABX6Py_V5-19" value="Попытки есть?" style="rhombus;whiteSpace=wrap;html=1;" parent="1" vertex="1">
                    <mxGeometry x="190" y="930" width="180" height="90" as="geometry"/>
                </mxCell>
                <mxCell id="Ptwl4c3_7X7ABX6Py_V5-21" value="НЕТ" style="text;html=1;strokeColor=none;fillColor=none;align=center;verticalAlign=middle;whiteSpace=wrap;rounded=0;" parent="1" vertex="1">
                    <mxGeometry x="110" y="945" width="60" height="30" as="geometry"/>
                </mxCell>
                <mxCell id="Ptwl4c3_7X7ABX6Py_V5-24" style="edgeStyle=none;html=1;exitX=0;exitY=0.5;exitDx=0;exitDy=0;" parent="1" source="Ptwl4c3_7X7ABX6Py_V5-23" target="Ptwl4c3_7X7ABX6Py_V5-25" edge="1">
                    <mxGeometry relative="1" as="geometry">
                        <mxPoint x="-220" y="975" as="targetPoint"/>
                    </mxGeometry>
                </mxCell>
                <mxCell id="Ptwl4c3_7X7ABX6Py_V5-23" value="Выводим сообщение, что игра окончена" style="shape=parallelogram;perimeter=parallelogramPerimeter;whiteSpace=wrap;html=1;fixedSize=1;" parent="1" vertex="1">
                    <mxGeometry x="-170" y="945" width="270" height="60" as="geometry"/>
                </mxCell>
                <mxCell id="Ptwl4c3_7X7ABX6Py_V5-25" value="End" style="ellipse;whiteSpace=wrap;html=1;aspect=fixed;" parent="1" vertex="1">
                    <mxGeometry x="-300" y="935" width="80" height="80" as="geometry"/>
                </mxCell>
                <mxCell id="Ptwl4c3_7X7ABX6Py_V5-28" style="edgeStyle=none;html=1;exitX=0;exitY=0.5;exitDx=0;exitDy=0;" parent="1" source="Ptwl4c3_7X7ABX6Py_V5-26" edge="1">
                    <mxGeometry relative="1" as="geometry">
                        <mxPoint x="80" y="1120.4705882352941" as="targetPoint"/>
                    </mxGeometry>
                </mxCell>
                <mxCell id="Ptwl4c3_7X7ABX6Py_V5-36" style="edgeStyle=none;html=1;entryX=0.5;entryY=0;entryDx=0;entryDy=0;" parent="1" source="Ptwl4c3_7X7ABX6Py_V5-26" target="Ptwl4c3_7X7ABX6Py_V5-35" edge="1">
                    <mxGeometry relative="1" as="geometry"/>
                </mxCell>
                <mxCell id="Ptwl4c3_7X7ABX6Py_V5-26" value="Слово отгадано?" style="rhombus;whiteSpace=wrap;html=1;" parent="1" vertex="1">
                    <mxGeometry x="185" y="1080" width="190" height="80" as="geometry"/>
                </mxCell>
                <mxCell id="Ptwl4c3_7X7ABX6Py_V5-29" value="ДА" style="text;html=1;strokeColor=none;fillColor=none;align=center;verticalAlign=middle;whiteSpace=wrap;rounded=0;" parent="1" vertex="1">
                    <mxGeometry x="110" y="1090" width="60" height="30" as="geometry"/>
                </mxCell>
                <mxCell id="Ptwl4c3_7X7ABX6Py_V5-33" style="edgeStyle=none;html=1;exitX=0;exitY=0.5;exitDx=0;exitDy=0;" parent="1" source="Ptwl4c3_7X7ABX6Py_V5-32" edge="1">
                    <mxGeometry relative="1" as="geometry">
                        <mxPoint x="-220" y="1120.4705882352941" as="targetPoint"/>
                    </mxGeometry>
                </mxCell>
                <mxCell id="Ptwl4c3_7X7ABX6Py_V5-32" value="Выводим сообщение о победе &lt;br&gt;и загаданное слово" style="shape=parallelogram;perimeter=parallelogramPerimeter;whiteSpace=wrap;html=1;fixedSize=1;" parent="1" vertex="1">
                    <mxGeometry x="-170" y="1090" width="260" height="60" as="geometry"/>
                </mxCell>
                <mxCell id="Ptwl4c3_7X7ABX6Py_V5-34" value="End" style="ellipse;whiteSpace=wrap;html=1;aspect=fixed;" parent="1" vertex="1">
                    <mxGeometry x="-300" y="1080" width="80" height="80" as="geometry"/>
                </mxCell>
                <mxCell id="Ptwl4c3_7X7ABX6Py_V5-38" style="edgeStyle=none;html=1;entryX=0.5;entryY=0;entryDx=0;entryDy=0;" parent="1" source="Ptwl4c3_7X7ABX6Py_V5-35" target="Ptwl4c3_7X7ABX6Py_V5-37" edge="1">
                    <mxGeometry relative="1" as="geometry"/>
                </mxCell>
                <mxCell id="Ptwl4c3_7X7ABX6Py_V5-35" value="Игрок вводит букву" style="shape=parallelogram;perimeter=parallelogramPerimeter;whiteSpace=wrap;html=1;fixedSize=1;" parent="1" vertex="1">
                    <mxGeometry x="140" y="1220" width="280" height="60" as="geometry"/>
                </mxCell>
                <mxCell id="Ptwl4c3_7X7ABX6Py_V5-40" style="edgeStyle=none;html=1;exitX=0.5;exitY=1;exitDx=0;exitDy=0;entryX=0.5;entryY=0;entryDx=0;entryDy=0;" parent="1" source="Ptwl4c3_7X7ABX6Py_V5-37" target="Ptwl4c3_7X7ABX6Py_V5-39" edge="1">
                    <mxGeometry relative="1" as="geometry"/>
                </mxCell>
                <mxCell id="Ptwl4c3_7X7ABX6Py_V5-37" value="Валидация ввода" style="shape=process;whiteSpace=wrap;html=1;backgroundOutline=1;" parent="1" vertex="1">
                    <mxGeometry x="145" y="1340" width="270" height="60" as="geometry"/>
                </mxCell>
                <mxCell id="Ptwl4c3_7X7ABX6Py_V5-41" style="edgeStyle=none;html=1;" parent="1" source="Ptwl4c3_7X7ABX6Py_V5-39" edge="1">
                    <mxGeometry relative="1" as="geometry">
                        <mxPoint x="80" y="1505" as="targetPoint"/>
                    </mxGeometry>
                </mxCell>
                <mxCell id="Ptwl4c3_7X7ABX6Py_V5-48" style="edgeStyle=none;html=1;exitX=0.5;exitY=1;exitDx=0;exitDy=0;entryX=0.5;entryY=0;entryDx=0;entryDy=0;" parent="1" source="Ptwl4c3_7X7ABX6Py_V5-39" target="Ptwl4c3_7X7ABX6Py_V5-47" edge="1">
                    <mxGeometry relative="1" as="geometry"/>
                </mxCell>
                <mxCell id="Ptwl4c3_7X7ABX6Py_V5-39" value="Пользователь ввел &lt;br&gt;корректные данные?" style="rhombus;whiteSpace=wrap;html=1;" parent="1" vertex="1">
                    <mxGeometry x="175" y="1450" width="210" height="110" as="geometry"/>
                </mxCell>
                <mxCell id="Ptwl4c3_7X7ABX6Py_V5-43" value="НЕТ" style="text;html=1;strokeColor=none;fillColor=none;align=center;verticalAlign=middle;whiteSpace=wrap;rounded=0;" parent="1" vertex="1">
                    <mxGeometry x="110" y="1470" width="60" height="30" as="geometry"/>
                </mxCell>
                <mxCell id="Ptwl4c3_7X7ABX6Py_V5-44" value="Выводим сообщение об ошибке ввода" style="shape=parallelogram;perimeter=parallelogramPerimeter;whiteSpace=wrap;html=1;fixedSize=1;" parent="1" vertex="1">
                    <mxGeometry x="-170" y="1475" width="260" height="60" as="geometry"/>
                </mxCell>
                <mxCell id="Ptwl4c3_7X7ABX6Py_V5-49" style="edgeStyle=none;html=1;" parent="1" source="Ptwl4c3_7X7ABX6Py_V5-47" target="Ptwl4c3_7X7ABX6Py_V5-50" edge="1">
                    <mxGeometry relative="1" as="geometry">
                        <mxPoint x="281.25" y="1730" as="targetPoint"/>
                    </mxGeometry>
                </mxCell>
                <mxCell id="Ptwl4c3_7X7ABX6Py_V5-47" value="Определяем, если ли буква в слове" style="shape=process;whiteSpace=wrap;html=1;backgroundOutline=1;" parent="1" vertex="1">
                    <mxGeometry x="150" y="1600" width="260" height="60" as="geometry"/>
                </mxCell>
                <mxCell id="Ptwl4c3_7X7ABX6Py_V5-57" style="edgeStyle=none;html=1;" parent="1" source="Ptwl4c3_7X7ABX6Py_V5-50" edge="1">
                    <mxGeometry relative="1" as="geometry">
                        <mxPoint x="80" y="1775" as="targetPoint"/>
                    </mxGeometry>
                </mxCell>
                <mxCell id="Ptwl4c3_7X7ABX6Py_V5-60" style="edgeStyle=none;html=1;" parent="1" source="Ptwl4c3_7X7ABX6Py_V5-50" edge="1">
                    <mxGeometry relative="1" as="geometry">
                        <mxPoint x="280" y="1900" as="targetPoint"/>
                    </mxGeometry>
                </mxCell>
                <mxCell id="Ptwl4c3_7X7ABX6Py_V5-50" value="Буква есть в слове?" style="rhombus;whiteSpace=wrap;html=1;" parent="1" vertex="1">
                    <mxGeometry x="190" y="1720" width="180" height="110" as="geometry"/>
                </mxCell>
                <mxCell id="Ptwl4c3_7X7ABX6Py_V5-55" value="НЕТ" style="text;html=1;strokeColor=none;fillColor=none;align=center;verticalAlign=middle;whiteSpace=wrap;rounded=0;" parent="1" vertex="1">
                    <mxGeometry x="110" y="1750" width="60" height="30" as="geometry"/>
                </mxCell>
                <mxCell id="Ptwl4c3_7X7ABX6Py_V5-58" value="Выводим сообщение, что буквы нет" style="shape=parallelogram;perimeter=parallelogramPerimeter;whiteSpace=wrap;html=1;fixedSize=1;" parent="1" vertex="1">
                    <mxGeometry x="-170" y="1745" width="260" height="60" as="geometry"/>
                </mxCell>
                <mxCell id="Ptwl4c3_7X7ABX6Py_V5-61" value="ДА" style="text;html=1;strokeColor=none;fillColor=none;align=center;verticalAlign=middle;whiteSpace=wrap;rounded=0;" parent="1" vertex="1">
                    <mxGeometry x="280" y="1850" width="60" height="30" as="geometry"/>
                </mxCell>
                <mxCell id="Ptwl4c3_7X7ABX6Py_V5-62" value="Выводим слово с отгаданными буквами" style="shape=parallelogram;perimeter=parallelogramPerimeter;whiteSpace=wrap;html=1;fixedSize=1;" parent="1" vertex="1">
                    <mxGeometry x="150" y="1900" width="270" height="60" as="geometry"/>
                </mxCell>
                <mxCell id="Ptwl4c3_7X7ABX6Py_V5-63" value="Слово отгадано или закончились попытки" style="shape=trapezoid;perimeter=trapezoidPerimeter;whiteSpace=wrap;html=1;fixedSize=1;direction=west;" parent="1" vertex="1">
                    <mxGeometry x="155" y="2000" width="260" height="60" as="geometry"/>
                </mxCell>
                <mxCell id="Ptwl4c3_7X7ABX6Py_V5-66" value="Словарь: Ключ: название темы,&lt;br&gt;значение: множество со словами" style="text;html=1;strokeColor=none;fillColor=none;align=center;verticalAlign=middle;whiteSpace=wrap;rounded=0;" parent="1" vertex="1">
                    <mxGeometry x="440" y="190" width="200" height="40" as="geometry"/>
                </mxCell>
                <mxCell id="Ptwl4c3_7X7ABX6Py_V5-67" value="random.choice" style="text;html=1;strokeColor=none;fillColor=none;align=center;verticalAlign=middle;whiteSpace=wrap;rounded=0;" parent="1" vertex="1">
                    <mxGeometry x="490" y="405" width="100" height="50" as="geometry"/>
                </mxCell>
                <mxCell id="Ptwl4c3_7X7ABX6Py_V5-68" value="len()" style="text;html=1;strokeColor=none;fillColor=none;align=center;verticalAlign=middle;whiteSpace=wrap;rounded=0;" parent="1" vertex="1">
                    <mxGeometry x="515" y="525" width="50" height="30" as="geometry"/>
                </mxCell>
                <mxCell id="Ptwl4c3_7X7ABX6Py_V5-69" value="while True" style="text;html=1;strokeColor=none;fillColor=none;align=center;verticalAlign=middle;whiteSpace=wrap;rounded=0;" parent="1" vertex="1">
                    <mxGeometry x="500" y="730" width="80" height="30" as="geometry"/>
                </mxCell>
                <mxCell id="Ptwl4c3_7X7ABX6Py_V5-70" value="" style="endArrow=none;html=1;entryX=0;entryY=0.5;entryDx=0;entryDy=0;exitX=1;exitY=0.5;exitDx=0;exitDy=0;" parent="1" source="Ptwl4c3_7X7ABX6Py_V5-11" target="Ptwl4c3_7X7ABX6Py_V5-69" edge="1">
                    <mxGeometry width="50" height="50" relative="1" as="geometry">
                        <mxPoint x="450" y="750" as="sourcePoint"/>
                        <mxPoint x="500" y="700" as="targetPoint"/>
                    </mxGeometry>
                </mxCell>
                <mxCell id="Ptwl4c3_7X7ABX6Py_V5-71" value="" style="endArrow=none;html=1;exitX=1;exitY=0.5;exitDx=0;exitDy=0;entryX=0;entryY=0.5;entryDx=0;entryDy=0;" parent="1" source="Ptwl4c3_7X7ABX6Py_V5-9" target="Ptwl4c3_7X7ABX6Py_V5-68" edge="1">
                    <mxGeometry width="50" height="50" relative="1" as="geometry">
                        <mxPoint x="450" y="750" as="sourcePoint"/>
                        <mxPoint x="500" y="700" as="targetPoint"/>
                    </mxGeometry>
                </mxCell>
                <mxCell id="Ptwl4c3_7X7ABX6Py_V5-72" value="" style="endArrow=none;html=1;exitX=1;exitY=0.5;exitDx=0;exitDy=0;" parent="1" source="Ptwl4c3_7X7ABX6Py_V5-7" target="Ptwl4c3_7X7ABX6Py_V5-67" edge="1">
                    <mxGeometry width="50" height="50" relative="1" as="geometry">
                        <mxPoint x="450" y="510" as="sourcePoint"/>
                        <mxPoint x="500" y="460" as="targetPoint"/>
                    </mxGeometry>
                </mxCell>
                <mxCell id="Ptwl4c3_7X7ABX6Py_V5-73" value="" style="endArrow=none;html=1;exitX=1;exitY=0.5;exitDx=0;exitDy=0;entryX=0;entryY=0.5;entryDx=0;entryDy=0;" parent="1" source="Ptwl4c3_7X7ABX6Py_V5-3" target="Ptwl4c3_7X7ABX6Py_V5-66" edge="1">
                    <mxGeometry width="50" height="50" relative="1" as="geometry">
                        <mxPoint x="450" y="350" as="sourcePoint"/>
                        <mxPoint x="500" y="300" as="targetPoint"/>
                    </mxGeometry>
                </mxCell>
                <mxCell id="Ptwl4c3_7X7ABX6Py_V5-74" value="" style="endArrow=none;html=1;exitX=1;exitY=0.5;exitDx=0;exitDy=0;" parent="1" source="Ptwl4c3_7X7ABX6Py_V5-16" target="Ptwl4c3_7X7ABX6Py_V5-75" edge="1">
                    <mxGeometry width="50" height="50" relative="1" as="geometry">
                        <mxPoint x="450" y="830" as="sourcePoint"/>
                        <mxPoint x="490" y="850" as="targetPoint"/>
                    </mxGeometry>
                </mxCell>
                <mxCell id="Ptwl4c3_7X7ABX6Py_V5-75" value="if и сравнение со счетчиом" style="text;html=1;strokeColor=none;fillColor=none;align=center;verticalAlign=middle;whiteSpace=wrap;rounded=0;" parent="1" vertex="1">
                    <mxGeometry x="460" y="827.5" width="160" height="45" as="geometry"/>
                </mxCell>
                <mxCell id="Ptwl4c3_7X7ABX6Py_V5-76" value="Приводим к нижнему регистру lower()" style="text;html=1;strokeColor=none;fillColor=none;align=center;verticalAlign=middle;whiteSpace=wrap;rounded=0;" parent="1" vertex="1">
                    <mxGeometry x="470" y="1235" width="220" height="30" as="geometry"/>
                </mxCell>
                <mxCell id="Ptwl4c3_7X7ABX6Py_V5-77" value="" style="endArrow=none;html=1;exitX=1;exitY=0.5;exitDx=0;exitDy=0;entryX=0;entryY=0.5;entryDx=0;entryDy=0;" parent="1" source="Ptwl4c3_7X7ABX6Py_V5-35" target="Ptwl4c3_7X7ABX6Py_V5-76" edge="1">
                    <mxGeometry width="50" height="50" relative="1" as="geometry">
                        <mxPoint x="510" y="1230" as="sourcePoint"/>
                        <mxPoint x="560" y="1180" as="targetPoint"/>
                    </mxGeometry>
                </mxCell>
                <mxCell id="Ptwl4c3_7X7ABX6Py_V5-78" value="Несколько if" style="text;html=1;strokeColor=none;fillColor=none;align=center;verticalAlign=middle;whiteSpace=wrap;rounded=0;" parent="1" vertex="1">
                    <mxGeometry x="510" y="1355" width="70" height="30" as="geometry"/>
                </mxCell>
                <mxCell id="Ptwl4c3_7X7ABX6Py_V5-79" value="" style="endArrow=none;html=1;exitX=1;exitY=0.5;exitDx=0;exitDy=0;entryX=0;entryY=0.5;entryDx=0;entryDy=0;" parent="1" source="Ptwl4c3_7X7ABX6Py_V5-37" target="Ptwl4c3_7X7ABX6Py_V5-78" edge="1">
                    <mxGeometry width="50" height="50" relative="1" as="geometry">
                        <mxPoint x="550" y="1300" as="sourcePoint"/>
                        <mxPoint x="600" y="1250" as="targetPoint"/>
                    </mxGeometry>
                </mxCell>
                <mxCell id="Ptwl4c3_7X7ABX6Py_V5-80" value="for i in range(len(word))" style="text;html=1;strokeColor=none;fillColor=none;align=center;verticalAlign=middle;whiteSpace=wrap;rounded=0;" parent="1" vertex="1">
                    <mxGeometry x="495" y="1615" width="170" height="30" as="geometry"/>
                </mxCell>
                <mxCell id="Ptwl4c3_7X7ABX6Py_V5-81" value="" style="endArrow=none;html=1;exitX=1;exitY=0.5;exitDx=0;exitDy=0;entryX=0;entryY=0.5;entryDx=0;entryDy=0;" parent="1" source="Ptwl4c3_7X7ABX6Py_V5-47" target="Ptwl4c3_7X7ABX6Py_V5-80" edge="1">
                    <mxGeometry width="50" height="50" relative="1" as="geometry">
                        <mxPoint x="480" y="1540" as="sourcePoint"/>
                        <mxPoint x="530" y="1490" as="targetPoint"/>
                    </mxGeometry>
                </mxCell>
                <mxCell id="Ptwl4c3_7X7ABX6Py_V5-82" value="" style="shape=curlyBracket;whiteSpace=wrap;html=1;rounded=1;labelPosition=left;verticalLabelPosition=middle;align=right;verticalAlign=middle;" parent="1" vertex="1">
                    <mxGeometry x="-360" y="970" width="60" height="160" as="geometry"/>
                </mxCell>
                <mxCell id="Ptwl4c3_7X7ABX6Py_V5-83" value="break" style="text;html=1;strokeColor=none;fillColor=none;align=center;verticalAlign=middle;whiteSpace=wrap;rounded=0;" parent="1" vertex="1">
                    <mxGeometry x="-420" y="1035" width="60" height="30" as="geometry"/>
                </mxCell>
            </root>
        </mxGraphModel>
    </diagram>
</mxfile>